Coordinates
version=1
nRows=6
nColumns=36
inDegrees=yes

Units are S.I. units (second, meters, Newtons, ...)
If the header above contains a line with 'inDegrees', this indicates whether rotational values are in degrees (yes) or radians (no).

endheader
time	pelvis_tilt	pelvis_list	pelvis_rotation	pelvis_tx	pelvis_ty	pelvis_tz	hip_flexion_r	hip_adduction_r	hip_rotation_r	knee_angle_r	knee_angle_r_beta	ankle_angle_r	subtalar_angle_r	mtp_angle_r	hip_flexion_l	hip_adduction_l	hip_rotation_l	knee_angle_l	knee_angle_l_beta	ankle_angle_l	subtalar_angle_l	mtp_angle_l	lumbar_extension	lumbar_bending	lumbar_rotation	arm_flex_r	arm_add_r	arm_rot_r	elbow_flex_r	pro_sup_r	arm_flex_l	arm_add_l	arm_rot_l	elbow_flex_l	pro_sup_l
      0.00000000	      2.74421915	     -1.11827231	     -0.19604381	     -0.94923204	      1.27066912	     -0.01208413	      1.28123359	      1.18786166	     -0.59474366	     10.47996314	      0.18290986	      3.21650036	    -20.34063047	     -5.29946950	      1.00407438	     -4.50160611	      1.46858247	     11.56067001	      0.20177176	     12.74513423	     -3.25899767	     -5.29946950	    -21.84033212	      0.86094877	      0.39021056	      7.31300282	    -10.73642402	     16.10089548	     25.01127770	     73.46154442	      3.74449386	     -7.62764548	     17.66473856	     22.09774041	     64.90904601
      0.00416670	      0.63971506	     -0.69904744	      0.06647326	     -0.94994760	      1.26856119	     -0.01192035	      4.70485796	      1.15091583	      0.12107716	     12.74530223	      0.22244749	      6.47869301	    -20.19778634	     -5.78579163	      4.34178520	     -3.33422761	      3.76281016	     13.36899885	      0.23333305	     13.18386200	     -4.08392545	     -5.78579163	    -19.56472405	      0.38422317	      0.24629058	      6.71505216	     -9.74720598	     12.48478017	     24.46054877	     72.53530149	      3.53109362	     -6.80743471	     15.58059897	     21.37842402	     65.18089761
      0.00833330	     -0.13079994	     -0.16975950	     -0.02599566	     -0.94902554	      1.27023258	     -0.01075594	      5.13041880	      0.69909861	     -0.28704412	     11.92239373	      0.20808503	      6.62379731	    -19.98813579	     -6.39147959	      4.86629067	     -2.82380466	      4.51149944	     12.84176320	      0.22413105	     12.46254590	     -5.40899212	     -6.39147959	    -18.41117288	     -0.47684979	      0.83792662	      5.56561649	     -8.55345383	      6.48590492	     25.12098622	     74.24292574	      3.48583380	     -6.65842924	     13.88260417	     21.12734059	     68.45996113
      0.01250000	      0.67281493	     -0.03708876	     -0.07242822	     -0.95016459	      1.26885873	     -0.01075783	      4.19377649	      0.56387073	     -0.17725003	     11.74131638	      0.20492463	      6.62499267	    -20.21409953	     -6.52525281	      3.68958871	     -2.63572745	      5.16393603	     12.27454283	      0.21423119	     11.82603764	     -6.96138328	     -6.52525281	    -19.47437822	     -0.70607305	      0.94377764	      5.57797810	     -8.33094925	      5.52660459	     25.60331728	     74.43995646	      3.67094438	     -6.80991310	     13.35580772	     21.47641312	     68.92416189
      0.01666670	      1.25957197	     -0.03431957	     -0.11278433	     -0.94737917	      1.26891129	     -0.00773331	      3.18213419	      0.70281249	      0.11503142	     11.19340430	      0.19536176	      6.18197279	    -20.72326858	     -6.59829179	      2.59181185	     -2.67981120	      5.68050263	     11.55735983	      0.20171398	     11.32329924	     -7.97247015	     -6.59829179	    -19.99264535	     -0.81293214	      1.13542813	      5.17613991	     -8.10608956	      4.67469094	     26.14577229	     74.29379434	      3.67385515	     -6.93815196	     13.22527604	     21.64793610	     69.27388285
      0.02083330	      1.48476258	     -0.05123278	     -0.13110693	     -0.94634237	      1.27072674	     -0.00913452	      2.64693766	      0.76005209	      0.19189884	     10.79664214	      0.18843695	      5.56890599	    -21.41013814	     -6.64391613	      2.13114197	     -2.67145673	      6.09910020	     11.24658824	      0.19628999	     11.10878830	     -8.65995386	     -6.64391613	    -20.01971100	     -0.77065935	      1.34018998	      4.93557710	     -8.10028008	      4.50658143	     26.15508803	     74.04777569	      3.74138561	     -6.81706594	     13.18292522	     21.40375868	     69.27229297
